{"asset":{"version":"2.0","generator":"Blockbench 4.12.4 glTF exporter"},"scenes":[{"nodes":[17],"name":"blockbench_export"}],"scene":0,"nodes":[{"translation":[-0.375,1.1875,0],"name":"40a88fcb-6d91-bfbf-fe0c-f0c3580696cb"},{"translation":[0.125,1.0625,-0.125],"name":"905c6387-ecbe-5c46-ac03-bd5f989bfa82"},{"translation":[-0.375,1.1875,0],"name":"7874108e-604a-f133-04f7-eeee320e558d"},{"name":"cube","mesh":0},{"rotation":[0.3826834323650898,0,0,0.9238795325112867],"translation":[-0.375,0.640625,-0.046875],"name":"cube","mesh":1},{"translation":[0.09375,1.4375,0],"name":"cube","mesh":2},{"translation":[-0.03125,0,0],"name":"cube","mesh":3},{"translation":[0,0.5,0],"name":"cube","mesh":4},{"translation":[-0.375,0.6875,0],"name":"lever","children":[6,7]},{"name":"dab50d48-1f49-7e0b-8dc7-a9e47ac74ffa"},{"rotation":[-0.7071067811865452,-0.7071067811865499,6.939096719295893e-16,7.805052775531436e-16],"name":"cylinder","mesh":5},{"translation":[0.3125,1.0625,-0.125],"name":"wheel","children":[9,10]},{"rotation":[-0.7071067811865452,-0.7071067811865499,6.939096719295893e-16,7.805052775531436e-16],"translation":[-0.1875,0,0],"name":"cylinder","mesh":6},{"translation":[0.0625,1.0625,-0.125],"name":"wheel2","children":[12]},{"rotation":[-0.7071067811865452,-0.7071067811865499,6.939096719295893e-16,7.805052775531436e-16],"translation":[-0.1875,0,0],"name":"cylinder","mesh":7},{"translation":[-0.1875,1.0625,-0.125],"name":"wheel3","children":[14]},{"name":"bone","children":[3,4,5,8,11,13,15]},{"children":[0,1,2,16]}],"bufferViews":[{"buffer":0,"byteOffset":0,"byteLength":672,"target":34962,"byteStride":12},{"buffer":0,"byteOffset":672,"byteLength":672,"target":34962,"byteStride":12},{"buffer":0,"byteOffset":1344,"byteLength":448,"target":34962,"byteStride":8},{"buffer":0,"byteOffset":1792,"byteLength":168,"target":34963},{"buffer":0,"byteOffset":1960,"byteLength":288,"target":34962,"byteStride":12},{"buffer":0,"byteOffset":2248,"byteLength":288,"target":34962,"byteStride":12},{"buffer":0,"byteOffset":2536,"byteLength":192,"target":34962,"byteStride":8},{"buffer":0,"byteOffset":2728,"byteLength":72,"target":34963},{"buffer":0,"byteOffset":2800,"byteLength":288,"target":34962,"byteStride":12},{"buffer":0,"byteOffset":3088,"byteLength":288,"target":34962,"byteStride":12},{"buffer":0,"byteOffset":3376,"byteLength":192,"target":34962,"byteStride":8},{"buffer":0,"byteOffset":3568,"byteLength":72,"target":34963},{"buffer":0,"byteOffset":3640,"byteLength":288,"target":34962,"byteStride":12},{"buffer":0,"byteOffset":3928,"byteLength":288,"target":34962,"byteStride":12},{"buffer":0,"byteOffset":4216,"byteLength":192,"target":34962,"byteStride":8},{"buffer":0,"byteOffset":4408,"byteLength":72,"target":34963},{"buffer":0,"byteOffset":4480,"byteLength":288,"target":34962,"byteStride":12},{"buffer":0,"byteOffset":4768,"byteLength":288,"target":34962,"byteStride":12},{"buffer":0,"byteOffset":5056,"byteLength":192,"target":34962,"byteStride":8},{"buffer":0,"byteOffset":5248,"byteLength":72,"target":34963},{"buffer":0,"byteOffset":5320,"byteLength":600,"target":34962,"byteStride":12},{"buffer":0,"byteOffset":5920,"byteLength":600,"target":34962,"byteStride":12},{"buffer":0,"byteOffset":6520,"byteLength":400,"target":34962,"byteStride":8},{"buffer":0,"byteOffset":6920,"byteLength":120,"target":34963},{"buffer":0,"byteOffset":7040,"byteLength":600,"target":34962,"byteStride":12},{"buffer":0,"byteOffset":7640,"byteLength":600,"target":34962,"byteStride":12},{"buffer":0,"byteOffset":8240,"byteLength":400,"target":34962,"byteStride":8},{"buffer":0,"byteOffset":8640,"byteLength":120,"target":34963},{"buffer":0,"byteOffset":8760,"byteLength":600,"target":34962,"byteStride":12},{"buffer":0,"byteOffset":9360,"byteLength":600,"target":34962,"byteStride":12},{"buffer":0,"byteOffset":9960,"byteLength":400,"target":34962,"byteStride":8},{"buffer":0,"byteOffset":10360,"byteLength":120,"target":34963},{"buffer":0,"byteOffset":10480,"byteLength":156},{"buffer":0,"byteOffset":10636,"byteLength":624},{"buffer":0,"byteOffset":11260,"byteLength":156},{"buffer":0,"byteOffset":11416,"byteLength":624},{"buffer":0,"byteOffset":12040,"byteLength":156},{"buffer":0,"byteOffset":12196,"byteLength":624},{"buffer":0,"byteOffset":12820,"byteLength":156},{"buffer":0,"byteOffset":12976,"byteLength":624},{"buffer":0,"byteOffset":13600,"byteLength":156},{"buffer":0,"byteOffset":13756,"byteLength":624},{"buffer":0,"byteOffset":14380,"byteLength":184},{"buffer":0,"byteOffset":14564,"byteLength":736},{"buffer":0,"byteOffset":15300,"byteLength":184},{"buffer":0,"byteOffset":15484,"byteLength":736},{"buffer":0,"byteOffset":16220,"byteLength":184},{"buffer":0,"byteOffset":16404,"byteLength":736},{"buffer":0,"byteOffset":17140,"byteLength":184},{"buffer":0,"byteOffset":17324,"byteLength":736},{"buffer":0,"byteOffset":18060,"byteLength":184},{"buffer":0,"byteOffset":18244,"byteLength":736},{"buffer":0,"byteOffset":18980,"byteLength":208},{"buffer":0,"byteOffset":19188,"byteLength":832},{"buffer":0,"byteOffset":20020,"byteLength":208},{"buffer":0,"byteOffset":20228,"byteLength":832},{"buffer":0,"byteOffset":21060,"byteLength":208},{"buffer":0,"byteOffset":21268,"byteLength":832},{"buffer":0,"byteOffset":22100,"byteLength":208},{"buffer":0,"byteOffset":22308,"byteLength":832},{"buffer":0,"byteOffset":23140,"byteLength":208},{"buffer":0,"byteOffset":23348,"byteLength":832},{"buffer":0,"byteOffset":24180,"byteLength":40},{"buffer":0,"byteOffset":24220,"byteLength":160}],"buffers":[{"byteLength":24380,"uri":"data:application/octet-stream;base64,"}],"accessors":[{"bufferView":0,"componentType":5126,"count":56,"max":[0.5,1.4375,0.5],"min":[-0.3125,0,-0.5],"type":"VEC3"},{"bufferView":1,"componentType":5126,"count":56,"max":[1,1,1],"min":[-1,-1,-1],"type":"VEC3"},{"bufferView":2,"componentType":5126,"count":56,"max":[0.734375,0.7421875],"min":[0,0],"type":"VEC2"},{"bufferView":3,"componentType":5123,"count":84,"max":[55],"min":[0],"type":"SCALAR"},{"bufferView":4,"componentType":5126,"count":24,"max":[0.0625,0.1875,0.125],"min":[-0.0625,-0.0625,-0.125],"type":"VEC3"},{"bufferView":5,"componentType":5126,"count":24,"max":[1,1,1],"min":[-1,-1,-1],"type":"VEC3"},{"bufferView":6,"componentType":5126,"count":24,"max":[0.75,0.796875],"min":[0.21875,0],"type":"VEC2"},{"bufferView":7,"componentType":5123,"count":36,"max":[23],"min":[0],"type":"SCALAR"},{"bufferView":8,"componentType":5126,"count":24,"max":[0.0625,0.125,0.0625],"min":[-0.0625,0,-0.0625],"type":"VEC3"},{"bufferView":9,"componentType":5126,"count":24,"max":[1,1,1],"min":[-1,-1,-1],"type":"VEC3"},{"bufferView":10,"componentType":5126,"count":24,"max":[0.78125,0.796875],"min":[0,0.34375],"type":"VEC2"},{"bufferView":11,"componentType":5123,"count":36,"max":[23],"min":[0],"type":"SCALAR"},{"bufferView":12,"componentType":5126,"count":24,"max":[0.0625,0.5,0.0625],"min":[0,0,-0.0625],"type":"VEC3"},{"bufferView":13,"componentType":5126,"count":24,"max":[1,1,1],"min":[-1,-1,-1],"type":"VEC3"},{"bufferView":14,"componentType":5126,"count":24,"max":[0.765625,0.421875],"min":[0,0],"type":"VEC2"},{"bufferView":15,"componentType":5123,"count":36,"max":[23],"min":[0],"type":"SCALAR"},{"bufferView":16,"componentType":5126,"count":24,"max":[0.0625,0.125,0.0625],"min":[-0.0625,0,-0.0625],"type":"VEC3"},{"bufferView":17,"componentType":5126,"count":24,"max":[1,1,1],"min":[-1,-1,-1],"type":"VEC3"},{"bufferView":18,"componentType":5126,"count":24,"max":[0.78125,0.625],"min":[0.265625,0.171875],"type":"VEC2"},{"bufferView":19,"componentType":5123,"count":36,"max":[23],"min":[0],"type":"SCALAR"},{"bufferView":20,"componentType":5126,"count":50,"max":[0.25715604424476624,0.125,0.21875],"min":[-0.25715604424476624,-0.0625,-0.2703898847103119],"type":"VEC3"},{"bufferView":21,"componentType":5126,"count":50,"max":[0.9510565400123596,1,1],"min":[-0.9510565400123596,-1,-0.80901700258255],"type":"VEC3"},{"bufferView":22,"componentType":5126,"count":50,"max":[0.78125,0.765625],"min":[0.22477343678474426,0.4375],"type":"VEC2"},{"bufferView":23,"componentType":5123,"count":60,"max":[49],"min":[0],"type":"SCALAR"},{"bufferView":24,"componentType":5126,"count":50,"max":[0.25715604424476624,0.3125,0.21875],"min":[-0.25715604424476624,0.125,-0.2703898847103119],"type":"VEC3"},{"bufferView":25,"componentType":5126,"count":50,"max":[0.9510565400123596,1,1],"min":[-0.9510565400123596,-1,-0.80901700258255],"type":"VEC3"},{"bufferView":26,"componentType":5126,"count":50,"max":[0.78125,0.765625],"min":[0.22477343678474426,0.4375],"type":"VEC2"},{"bufferView":27,"componentType":5123,"count":60,"max":[49],"min":[0],"type":"SCALAR"},{"bufferView":28,"componentType":5126,"count":50,"max":[0.25715604424476624,0.3125,0.21875],"min":[-0.25715604424476624,0.125,-0.2703898847103119],"type":"VEC3"},{"bufferView":29,"componentType":5126,"count":50,"max":[0.9510565400123596,1,1],"min":[-0.9510565400123596,-1,-0.80901700258255],"type":"VEC3"},{"bufferView":30,"componentType":5126,"count":50,"max":[0.78125,0.765625],"min":[0.22477343678474426,0.4375],"type":"VEC2"},{"bufferView":31,"componentType":5123,"count":60,"max":[49],"min":[0],"type":"SCALAR"},{"bufferView":32,"componentType":5126,"count":39,"max":[2],"min":[0],"type":"SCALAR"},{"bufferView":33,"componentType":5126,"count":39,"max":[0.9983081817626953,0,0,1],"min":[-0.9996366500854492,0,0,-1],"type":"VEC4"},{"bufferView":34,"componentType":5126,"count":39,"max":[2],"min":[0],"type":"SCALAR"},{"bufferView":35,"componentType":5126,"count":39,"max":[0.994717538356781,0,0,1],"min":[-0.9966023564338684,0,0,-0.9998349547386169],"type":"VEC4"},{"bufferView":36,"componentType":5126,"count":39,"max":[2],"min":[0],"type":"SCALAR"},{"bufferView":37,"componentType":5126,"count":39,"max":[0.9957742691040039,0,0,1],"min":[-0.9932159781455994,0,0,-0.9984705448150635],"type":"VEC4"},{"bufferView":38,"componentType":5126,"count":39,"max":[2],"min":[0],"type":"SCALAR"},{"bufferView":39,"componentType":5126,"count":39,"max":[0.996803343296051,0,0,1],"min":[-0.9942404627799988,0,0,-0.9987098574638367],"type":"VEC4"},{"bufferView":40,"componentType":5126,"count":39,"max":[2],"min":[0],"type":"SCALAR"},{"bufferView":41,"componentType":5126,"count":39,"max":[0.9999144673347473,0,0,1],"min":[-0.9999192953109741,0,0,-0.9997851252555847],"type":"VEC4"},{"bufferView":42,"componentType":5126,"count":46,"max":[2.5],"min":[0],"type":"SCALAR"},{"bufferView":43,"componentType":5126,"count":46,"max":[0.9999843835830688,0,0,1],"min":[-0.9999843835830688,0,0,-1],"type":"VEC4"},{"bufferView":44,"componentType":5126,"count":46,"max":[2.5],"min":[0],"type":"SCALAR"},{"bufferView":45,"componentType":5126,"count":46,"max":[0.9992297887802124,0,0,1],"min":[-0.9986783266067505,0,0,-0.9960021376609802],"type":"VEC4"},{"bufferView":46,"componentType":5126,"count":46,"max":[2.5],"min":[0],"type":"SCALAR"},{"bufferView":47,"componentType":5126,"count":46,"max":[0.9949302077293396,0,0,1],"min":[-0.9998419880867004,0,0,-0.9992323517799377],"type":"VEC4"},{"bufferView":48,"componentType":5126,"count":46,"max":[2.5],"min":[0],"type":"SCALAR"},{"bufferView":49,"componentType":5126,"count":46,"max":[0.9995864033699036,0,0,1],"min":[-0.9995461106300354,0,0,-0.9972670078277588],"type":"VEC4"},{"bufferView":50,"componentType":5126,"count":46,"max":[2.5],"min":[0],"type":"SCALAR"},{"bufferView":51,"componentType":5126,"count":46,"max":[0.9912070035934448,0,0,1],"min":[-0.9978440999984741,0,0,-0.9976731538772583],"type":"VEC4"},{"bufferView":52,"componentType":5126,"count":52,"max":[3],"min":[0],"type":"SCALAR"},{"bufferView":53,"componentType":5126,"count":52,"max":[1,0,0,1],"min":[-0.9996076822280884,0,0,-1],"type":"VEC4"},{"bufferView":54,"componentType":5126,"count":52,"max":[3],"min":[0],"type":"SCALAR"},{"bufferView":55,"componentType":5126,"count":52,"max":[0.9976010918617249,0,0,1],"min":[-0.9994603991508484,0,0,-0.9976093769073486],"type":"VEC4"},{"bufferView":56,"componentType":5126,"count":52,"max":[3],"min":[0],"type":"SCALAR"},{"bufferView":57,"componentType":5126,"count":52,"max":[0.9857780933380127,0,0,1],"min":[-0.9993242621421814,0,0,-0.9991313815116882],"type":"VEC4"},{"bufferView":58,"componentType":5126,"count":52,"max":[3],"min":[0],"type":"SCALAR"},{"bufferView":59,"componentType":5126,"count":52,"max":[0.9994981288909912,0,0,1],"min":[-0.9999741315841675,0,0,-0.9990907311439514],"type":"VEC4"},{"bufferView":60,"componentType":5126,"count":52,"max":[3],"min":[0],"type":"SCALAR"},{"bufferView":61,"componentType":5126,"count":52,"max":[0.99994957447052,0,0,1],"min":[-0.9985628724098206,0,0,-0.9972003102302551],"type":"VEC4"},{"bufferView":62,"componentType":5126,"count":10,"max":[0.5],"min":[0],"type":"SCALAR"},{"bufferView":63,"componentType":5126,"count":10,"max":[0,0,0,1],"min":[-0.3826834261417389,0,0,0.9238795042037964],"type":"VEC4"}],"materials":[{"pbrMetallicRoughness":{"metallicFactor":0,"roughnessFactor":1,"baseColorTexture":{"index":0}},"alphaMode":"MASK","alphaCutoff":0.05,"doubleSided":true}],"textures":[{"sampler":0,"source":0,"name":"texture"}],"samplers":[{"magFilter":9728,"minFilter":9728,"wrapS":33071,"wrapT":33071}],"images":[{"mimeType":"image/png","uri":"data:image/png;base64,"}],"meshes":[{"primitives":[{"mode":4,"attributes":{"POSITION":0,"NORMAL":1,"TEXCOORD_0":2},"indices":3,"material":0}]},{"primitives":[{"mode":4,"attributes":{"POSITION":4,"NORMAL":5,"TEXCOORD_0":6},"indices":7,"material":0}]},{"primitives":[{"mode":4,"attributes":{"POSITION":8,"NORMAL":9,"TEXCOORD_0":10},"indices":11,"material":0}]},{"primitives":[{"mode":4,"attributes":{"POSITION":12,"NORMAL":13,"TEXCOORD_0":14},"indices":15,"material":0}]},{"primitives":[{"mode":4,"attributes":{"POSITION":16,"NORMAL":17,"TEXCOORD_0":18},"indices":19,"material":0}]},{"primitives":[{"mode":4,"attributes":{"POSITION":20,"NORMAL":21,"TEXCOORD_0":22},"indices":23,"material":0}]},{"primitives":[{"mode":4,"attributes":{"POSITION":24,"NORMAL":25,"TEXCOORD_0":26},"indices":27,"material":0}]},{"primitives":[{"mode":4,"attributes":{"POSITION":28,"NORMAL":29,"TEXCOORD_0":30},"indices":31,"material":0}]}],"animations":[{"name":"wheel1-1","samplers":[{"input":32,"output":33,"interpolation":"LINEAR"}],"channels":[{"sampler":0,"target":{"node":11,"path":"rotation"}}]},{"name":"wheel1-2","samplers":[{"input":34,"output":35,"interpolation":"LINEAR"}],"channels":[{"sampler":0,"target":{"node":11,"path":"rotation"}}]},{"name":"wheel1-3","samplers":[{"input":36,"output":37,"interpolation":"LINEAR"}],"channels":[{"sampler":0,"target":{"node":11,"path":"rotation"}}]},{"name":"wheel1-4","samplers":[{"input":38,"output":39,"interpolation":"LINEAR"}],"channels":[{"sampler":0,"target":{"node":11,"path":"rotation"}}]},{"name":"wheel1-5","samplers":[{"input":40,"output":41,"interpolation":"LINEAR"}],"channels":[{"sampler":0,"target":{"node":11,"path":"rotation"}}]},{"name":"wheel2-1","samplers":[{"input":42,"output":43,"interpolation":"LINEAR"}],"channels":[{"sampler":0,"target":{"node":13,"path":"rotation"}}]},{"name":"wheel2-2","samplers":[{"input":44,"output":45,"interpolation":"LINEAR"}],"channels":[{"sampler":0,"target":{"node":13,"path":"rotation"}}]},{"name":"wheel2-3","samplers":[{"input":46,"output":47,"interpolation":"LINEAR"}],"channels":[{"sampler":0,"target":{"node":13,"path":"rotation"}}]},{"name":"wheel2-4","samplers":[{"input":48,"output":49,"interpolation":"LINEAR"}],"channels":[{"sampler":0,"target":{"node":13,"path":"rotation"}}]},{"name":"wheel2-5","samplers":[{"input":50,"output":51,"interpolation":"LINEAR"}],"channels":[{"sampler":0,"target":{"node":13,"path":"rotation"}}]},{"name":"wheel3-1","samplers":[{"input":52,"output":53,"interpolation":"LINEAR"}],"channels":[{"sampler":0,"target":{"node":15,"path":"rotation"}}]},{"name":"wheel3-2","samplers":[{"input":54,"output":55,"interpolation":"LINEAR"}],"channels":[{"sampler":0,"target":{"node":15,"path":"rotation"}}]},{"name":"wheel3-3","samplers":[{"input":56,"output":57,"interpolation":"LINEAR"}],"channels":[{"sampler":0,"target":{"node":15,"path":"rotation"}}]},{"name":"wheel3-4","samplers":[{"input":58,"output":59,"interpolation":"LINEAR"}],"channels":[{"sampler":0,"target":{"node":15,"path":"rotation"}}]},{"name":"wheel3-5","samplers":[{"input":60,"output":61,"interpolation":"LINEAR"}],"channels":[{"sampler":0,"target":{"node":15,"path":"rotation"}}]},{"name":"lever","samplers":[{"input":62,"output":63,"interpolation":"LINEAR"}],"channels":[{"sampler":0,"target":{"node":8,"path":"rotation"}}]}]}